# xmcd
#
# Track frame offsets: 
#        200
#        16972
#        55522
#        77907
#        107800
#        137050
#        166970
#        196132
#        223895
#        254892
#
# Disc length: 3587 seconds
#
# Revision: 3
# Processed by: cddbd v1.5.2PL0 Copyright (c) Steve Scherf et al.
# Submitted via: ExactAudioCopy v0.95b4
#
DISCID=8d0e010a
DTITLE=Otis Rush - Cold Day In Hell
DYEAR=1975
DGENRE=Blues
TTITLE0=Cut You A Loose
TTITLE1=You're Breaking My Heart
TTITLE2=Midnight Special
TTITLE3=Society Woman
TTITLE4=Mean Old World
TTITLE5=All Your Love
TTITLE6=Cold Day In Hell
TTITLE7=Part Time Love
TTITLE8=You're Breaking My Heart
TTITLE9=Motoring Along
EXTD=Delmark DE-638\n\nOtis Rush:  vocal, guitar\nAbb Locke:  tenor sa
EXTD=xophone\nChuck Smith:  baritone saxophone\nBig Moose Walker:  org
EXTD=an, piano\nMighty Joe Young:  guitar\nJames Green:  bass\nJesse G
EXTD=reen:  drums\n\nRecorded April 29 and May 29, 1975\n\nSubmitted 6/2
EXTD=6/97\n[Jmccoy@efn.org]
EXTT0=
EXTT1=
EXTT2=
EXTT3=
EXTT4=
EXTT5=
EXTT6=
EXTT7=
EXTT8=
EXTT9=
PLAYORDER=
